<svg xmlns="http://www.w3.org/2000/svg" viewBox="0 0 90 90" fill="none">
  <path d="M45 0C20.147 0 0 20.147 0 45s20.147 45 45 45 45-20.147 45-45S69.853 0 45 0z" fill="#2081E2"/>
  <path d="M22.954 46.382l.051-.081L34.942 27.71a.162.162 0 01.282.014c2.011 4.49 3.748 10.063 2.933 13.534-.353 1.494-1.322 3.516-2.415 5.37a13.7 13.7 0 01-.493.811.163.163 0 01-.134.071H23.09a.162.162 0 01-.137-.128zM67.17 48.946v1.179c0 .072-.042.137-.108.166-1.618.737-7.16 3.478-9.465 6.917-5.887 8.618-10.395 20.954-20.481 20.954H26.898A17.905 17.905 0 019 60.176v-.304c0-.09.073-.163.163-.163h14.932a.326.326 0 01.322.35c-.137 1.485.1 3.01.696 4.42a8.255 8.255 0 007.616 5.1h4.765V60.176h-4.698a.165.165 0 01-.136-.256l.05-.072c.476-.694 1.162-1.768 1.86-3.023.468-.843.923-1.747 1.31-2.657.069-.16.135-.324.197-.488.1-.266.203-.548.288-.827a21.11 21.11 0 00.578-3.02c.056-.478.081-.976.081-1.484 0-.48-.027-.965-.081-1.44-.047-.542-.143-1.078-.282-1.605a13.69 13.69 0 00-.443-1.487c-.128-.35-.275-.692-.432-1.024a18.462 18.462 0 00-.478-.943 15.7 15.7 0 00-.352-.631l-.97-1.68a.166.166 0 01.14-.25h9.917a.163.163 0 01.163.163v9.315c0 .09.073.164.163.164h6.463a.327.327 0 00.3-.195c.91-2.06 2.28-4.61 3.91-6.62.92-1.14 1.93-2.18 2.997-3.02a19.007 19.007 0 012.997-1.86H67.01c.09 0 .163.073.163.163zM67.17 34.014c.09 0 .163.073.163.163v9.037c0 .09-.073.163-.163.163H55.832a.163.163 0 00-.163.163v5.557c0 .09.073.163.163.163h5.826c.09 0 .163.073.163.163v4.104a.163.163 0 01-.163.163h-5.826a.163.163 0 00-.163.163v5.558c0 .09.073.163.163.163H67.17c.09 0 .163.073.163.163v4.104a.163.163 0 01-.163.163H48.97a.163.163 0 01-.163-.163V25.843c0-.09.073-.163.163-.163H67.17z" fill="white"/>
</svg>
