<svg xmlns="http://www.w3.org/2000/svg" viewBox="0 0 100 100" fill="none">
  <rect width="100" height="100" rx="20" fill="#black"/>
  <path d="M50 15 C30 15 15 30 15 50 C15 70 30 85 50 85 C70 85 85 70 85 50 C85 30 70 15 50 15Z" fill="none" stroke="#FF6B35" stroke-width="3"/>
  <path d="M50 25 C35 25 25 35 25 50 C25 65 35 75 50 75 C65 75 75 65 75 50 C75 35 65 25 50 25Z" fill="none" stroke="#FF6B35" stroke-width="2" opacity="0.7"/>
  <path d="M50 35 C40 35 35 40 35 50 C35 60 40 65 50 65 C60 65 65 60 65 50 C65 40 60 35 50 35Z" fill="#FF6B35" opacity="0.5"/>
  <path d="M30 50 L70 50 M50 30 L50 70" stroke="#FF6B35" stroke-width="2" stroke-linecap="round"/>
  <circle cx="50" cy="50" r="4" fill="#FF6B35"/>
  <text x="50" y="95" font-family="monospace" font-size="8" fill="#FF6B35" text-anchor="middle">SUNO</text>
</svg>
