<svg xmlns="http://www.w3.org/2000/svg" viewBox="0 0 240 240" fill="none">
  <circle cx="120" cy="120" r="120" fill="#229ED9"/>
  <path d="M81.229 128.772l14.237 39.406s1.78 3.687 3.686 3.687c1.906 0 30.255-29.535 30.255-29.535l31.485-60.89L81.229 128.772z" fill="#C8DAEA"/>
  <path d="M100.106 138.878l-2.733 29.184s-1.144 8.901 7.757 0 17.415-15.763 17.415-15.763" fill="#A9C6D8"/>
  <path d="M81.486 130.178l-40.232-13.05s-4.814-1.951-3.27-6.386c.32-.913 1.073-1.684 3.488-3.298 10.797-7.514 199.813-75.455 199.813-75.455s4.421-1.484 7.017-.499c1.189.447 1.945 1.315 2.257 2.697.297 1.318.385 2.677.161 4.798-.012.157-.027.318-.046.478-.164 1.43-.435 4.013-.709 6.593L222.37 174.82s-1.355 10.624-11.14 10.986c-4.52.167-10.025-1.044-16.196-6.107-3.625-2.978-24.478-16.533-34.518-24.101-.982-.739-1.09-2.139-.233-3.024l20.394-19.965s23.498-22.79 25.398-31.103c.162-.699-.182-1.042-.698-1.015-2.395.125-31.068 19.207-51.565 31.981" fill="white"/>
</svg>
